# xmcd CD database file
#
# Track frame offsets:
#	150
#	8312
#	21905
#	38022
#	50695
#	63657
#	82782
#	97920
#	113952
#	130420
#	143650
#	159347
#	174760
#	192542
#	207452
#	222347
#	257392
#	260780
#	273437
#	288110
#
# Disc length: 4025 seconds
#
# Revision: 3
# Processed by: cddbd v1.5.1PL2 Copyright (c) Steve Scherf et al.
# Submitted via: CDex 1.51
#
DISCID=150fb714
DTITLE=The Blues Brothers - Definitive Collection
DYEAR=1992
DGENRE=Blues
TTITLE0=Opening: I Can't Turn You Loose
TTITLE1=Hey Bartender
TTITLE2=Messin' With The Kid
TTITLE3=(I Got Everything I Need) Almost
TTITLE4=Rubber Biscuit
TTITLE5=I Don't Know
TTITLE6=Soul Man
TTITLE7=Who's Making Love
TTITLE8=Mother Popcorn (You Got To Have A Mother For Me)
TTITLE9=Guilty
TTITLE10=Riot In Cell Block Number Nine
TTITLE11=From The Bottom
TTITLE12=Going Back To Miami
TTITLE13=Everybody Needs Somebody To Love
TTITLE14=Expressway To Your Heart
TTITLE15=Sweet Home Chicago
TTITLE16=Closing: I Can't Turn You Loose
TTITLE17=Shake Your Tailfeather
TTITLE18=Think
TTITLE19=Gimme Some Lovin'
EXTD=YEAR: 1992
EXTT0=
EXTT1=
EXTT2=
EXTT3=
EXTT4=
EXTT5=
EXTT6=
EXTT7=
EXTT8=
EXTT9=
EXTT10=
EXTT11=
EXTT12=
EXTT13=
EXTT14=
EXTT15=
EXTT16=
EXTT17=
EXTT18=
EXTT19=
PLAYORDER=
